<svg width="1024" height="1024" viewBox="0 0 1024 1024" fill="none" xmlns="http://www.w3.org/2000/svg">
<path d="M577.63 510.591C722.183 452.858 707.729 315.725 707.729 315.725H303.02C303.02 315.725 288.566 452.858 433.105 510.591C433.105 510.591 462.013 517.805 505.374 517.805C548.736 517.805 577.63 510.591 577.63 510.591Z" fill="url(#paint0_radial_1_2)"/>
<path d="M425.713 472.103L585.573 472.378L709.271 525.651L690.55 900.462C686.736 927.993 594.851 938.234 505.622 938.234C416.393 938.234 310.797 928.007 306.943 900.517L301.492 525.624L425.713 472.103Z" fill="url(#paint1_linear_1_2)"/>
<path d="M585.408 494.431L505.374 540.449L425.355 494.431V417.921H585.408V494.431Z" fill="#F5BB51"/>
<path d="M505.374 609.208C576.818 609.208 590.308 500.639 590.831 496.014L579.53 494.555C579.392 495.573 566.728 597.219 505.388 597.219C444.021 597.219 431.357 495.573 431.26 494.555L419.931 496.014C420.482 500.639 433.972 609.208 505.374 609.208Z" fill="#302C3B"/>
<path d="M505.374 510.798H562.378C562.378 510.798 552.054 582.737 505.388 582.737C458.723 582.737 448.398 510.798 448.398 510.798H505.374Z" fill="#E6EBEF"/>
<path d="M546.823 555.412C546.823 555.412 530.524 510.798 505.127 510.798C479.743 510.798 463.94 555.399 463.94 555.399C463.94 555.399 448.385 528.776 448.385 510.798H562.378C562.378 510.798 560.836 530.813 546.823 555.412Z" fill="#B3C2C6"/>
<path d="M523.393 555.798C525.458 561.442 527.344 568.118 529.079 575.4C513.386 586.013 497.597 586.165 481.711 575.4C483.229 568.764 485.123 562.219 487.383 555.798C492.228 542.555 518.548 542.555 523.393 555.798Z" fill="#D61924"/>
<path d="M488.911 555.798C492.627 560.616 518.589 561.125 521.865 555.798C529.671 543.202 542.486 518.218 542.486 518.218C542.486 518.218 534.902 510.784 505.402 510.784C475.861 510.784 468.303 518.218 468.303 518.218C468.303 518.218 479.949 544.262 488.911 555.798Z" fill="#E81C27"/>
<path d="M425.355 460.76C432.375 500.983 505.388 510.798 505.388 510.798C479.908 518.988 441.832 572.84 441.832 572.84C406.689 516.015 425.355 460.76 425.355 460.76Z" fill="white"/>
<path d="M585.408 460.76C578.36 500.983 505.374 510.798 505.374 510.798C530.841 518.988 568.903 572.84 568.903 572.84C604.06 516.015 585.408 460.76 585.408 460.76Z" fill="white"/>
<path d="M348.419 924.772L359.335 927.139C359.335 927.139 355.412 583.549 353.182 583.412C350.924 583.274 348.419 924.772 348.419 924.772ZM406.454 933.761L417.302 934.724C417.302 934.724 414.397 559.748 412.401 559.611C410.391 559.459 406.454 933.761 406.454 933.761ZM470.258 937.684L480.968 937.945C480.968 937.945 477.568 623.511 476.012 623.373C474.429 623.236 470.258 937.684 470.258 937.684ZM657.705 583.412C655.447 583.549 651.565 925.322 651.565 925.322L662.44 922.197C662.44 922.197 660.004 583.26 657.705 583.412ZM598.499 559.597C596.489 559.735 593.598 934.49 593.598 934.49L604.432 933.361C604.432 933.361 600.536 559.459 598.499 559.597ZM534.888 623.373C533.319 623.511 529.932 938.028 529.932 938.028L540.642 937.821C540.642 937.821 536.471 623.236 534.888 623.373Z" fill="#4E4961"/>
<path d="M679.289 914.943C679.289 914.943 679.688 512.643 709.271 525.651C757.285 546.768 779.93 679.688 779.93 880.735C779.93 914.241 679.289 914.943 679.289 914.943Z" fill="#484258"/>
<path d="M685.8 660.774C685.8 660.774 688.691 842.756 679.289 914.943C667.175 839.755 685.8 660.774 685.8 660.774Z" fill="#302C3B"/>
<path d="M301.492 525.624C258.364 540.449 201.773 761.704 201.773 842.673C201.773 876.619 298.284 922.06 396.832 932.769C406.014 933.761 425.602 783.44 425.602 783.44L333.304 759.102C333.304 759.102 313.743 521.425 301.505 525.637L301.492 525.624Z" fill="#484258"/>
<path d="M413.626 784.789C456.245 750.898 436.477 938.234 394.726 932.522C376.941 930.085 385.421 807.227 413.64 784.789H413.626ZM337.447 637.772C350.387 687.191 340.407 760.823 340.407 760.823L325.884 756.927C325.884 756.927 337.434 687.989 337.447 637.772Z" fill="#302C3B"/>
<path d="M277.016 750.568C386.081 762.489 445.329 773.047 433.146 789.689C417.302 776.777 378.593 775.649 277.016 750.568Z" fill="#302C3B"/>
<path d="M425.382 785.023C429.801 780.659 455.226 790.598 453.395 797.302C445.342 826.926 455.997 869.847 449.362 890.481C445.425 902.733 410.089 911.267 404.706 904.219C393.749 889.903 403.605 806.552 425.382 785.023Z" fill="#E6EBEF"/>
<path d="M579.722 743.74L545.928 734.751C545.928 734.751 542.073 770.789 540.408 778.994C536.746 796.971 511.073 876.289 503.075 899.691C502.569 901.183 502.381 902.765 502.522 904.335C502.664 905.904 503.132 907.427 503.897 908.805C504.661 910.183 505.706 911.386 506.963 912.336C508.221 913.287 509.663 913.964 511.197 914.323L517.97 915.962C519.451 916.327 520.991 916.392 522.498 916.151C524.005 915.911 525.449 915.37 526.743 914.561C528.037 913.753 529.155 912.692 530.032 911.443C530.908 910.194 531.525 908.781 531.846 907.289C536.939 883.062 557.064 800.165 562.268 784.816C564.938 776.874 579.722 743.754 579.722 743.754V743.74Z" fill="url(#paint2_linear_1_2)"/>
<path d="M581.388 747.209L542.734 736.912C542.09 736.742 541.486 736.448 540.957 736.045C540.427 735.641 539.982 735.138 539.647 734.562C539.312 733.987 539.094 733.351 539.005 732.692C538.916 732.032 538.957 731.361 539.128 730.718L539.183 730.552C539.537 729.252 540.392 728.145 541.561 727.475C542.73 726.804 544.117 726.624 545.419 726.973L584.072 737.256C584.717 737.424 585.322 737.718 585.853 738.121C586.384 738.524 586.829 739.027 587.165 739.603C587.5 740.179 587.718 740.815 587.806 741.476C587.894 742.136 587.851 742.807 587.679 743.451L587.638 743.63C587.283 744.933 586.426 746.042 585.254 746.713C584.082 747.384 582.691 747.563 581.388 747.209Z" fill="#5C300C"/>
<path d="M592.882 741.042L535.562 725.762L562.681 625.163L620.014 640.443L592.882 741.042Z" fill="url(#paint3_linear_1_2)"/>
<path d="M643.554 753.087L611.865 744.662C610.444 744.288 609.11 743.637 607.941 742.746C606.771 741.855 605.79 740.742 605.052 739.471C604.314 738.199 603.834 736.795 603.64 735.337C603.446 733.88 603.542 732.399 603.922 730.979L624.502 654.635C625.285 651.765 627.173 649.322 629.753 647.842C632.333 646.361 635.395 645.962 638.268 646.734L669.942 655.172C675.944 656.769 679.496 662.881 677.899 668.855L657.319 745.199C656.536 748.069 654.648 750.512 652.068 751.992C649.488 753.473 646.427 753.858 643.554 753.087Z" fill="url(#paint4_linear_1_2)"/>
<path d="M597.439 746.479L597.246 746.424C596.536 746.236 595.871 745.909 595.287 745.463C594.704 745.017 594.214 744.46 593.846 743.825C593.478 743.19 593.239 742.488 593.142 741.76C593.045 741.032 593.092 740.292 593.282 739.583L619.615 641.888C620.011 640.457 620.957 639.24 622.246 638.502C623.535 637.765 625.063 637.567 626.498 637.951L626.691 637.992C629.692 638.791 631.467 641.847 630.655 644.834L604.322 742.528C603.932 743.964 602.988 745.187 601.697 745.928C600.407 746.668 598.875 746.867 597.439 746.479Z" fill="url(#paint5_linear_1_2)"/>
<path d="M631.302 757.987L620.014 754.973C618.606 754.603 617.285 753.959 616.126 753.078C614.968 752.196 613.995 751.094 613.263 749.836C612.531 748.577 612.056 747.186 611.863 745.743C611.67 744.3 611.765 742.834 612.14 741.427L636.877 649.666C637.654 646.825 639.523 644.408 642.077 642.943C644.631 641.478 647.661 641.084 650.505 641.847L661.793 644.861C663.201 645.231 664.522 645.875 665.681 646.756C666.84 647.638 667.813 648.739 668.544 649.998C669.276 651.257 669.752 652.647 669.944 654.09C670.137 655.533 670.043 657 669.667 658.407L644.93 750.155C644.153 752.995 642.284 755.413 639.731 756.881C637.178 758.348 634.148 758.746 631.302 757.987Z" fill="url(#paint6_linear_1_2)"/>
<path d="M485.621 711.033L517.309 719.471C520.18 720.243 523.24 719.846 525.82 718.368C528.399 716.89 530.289 714.451 531.075 711.583L551.654 635.225C552.036 633.804 552.133 632.322 551.939 630.864C551.745 629.405 551.265 627.999 550.525 626.727C549.785 625.455 548.801 624.342 547.63 623.452C546.458 622.563 545.122 621.913 543.698 621.542L512.023 613.104C509.15 612.333 506.089 612.731 503.509 614.212C500.929 615.693 499.041 618.136 498.257 621.006L477.664 697.363C477.284 698.784 477.189 700.265 477.384 701.722C477.579 703.179 478.06 704.583 478.799 705.853C479.539 707.123 480.522 708.235 481.693 709.124C482.863 710.013 484.198 710.662 485.621 711.033Z" fill="url(#paint7_linear_1_2)"/>
<path d="M528.886 728.212L529.065 728.267C530.502 728.655 532.033 728.457 533.324 727.716C534.614 726.975 535.558 725.753 535.948 724.317L562.281 626.622C562.473 625.912 562.521 625.172 562.425 624.444C562.329 623.715 562.09 623.013 561.722 622.377C561.353 621.741 560.863 621.184 560.279 620.739C559.694 620.293 559.028 619.967 558.317 619.78L558.124 619.725C556.688 619.338 555.156 619.536 553.865 620.277C552.575 621.018 551.631 622.24 551.241 623.676L524.908 721.371C524.719 722.081 524.672 722.822 524.769 723.551C524.867 724.279 525.108 724.981 525.477 725.617C525.847 726.252 526.338 726.809 526.923 727.254C527.508 727.7 528.175 728.025 528.886 728.212Z" fill="url(#paint8_linear_1_2)"/>
<path d="M493.77 721.357L505.058 724.358C507.901 725.121 510.932 724.727 513.486 723.261C516.039 721.796 517.909 719.379 518.686 716.539L543.422 624.777C543.799 623.372 543.893 621.906 543.702 620.464C543.51 619.021 543.035 617.631 542.305 616.373C541.575 615.114 540.603 614.012 539.446 613.13C538.289 612.248 536.969 611.603 535.562 611.232L524.261 608.231C521.417 607.468 518.387 607.862 515.833 609.328C513.279 610.793 511.409 613.21 510.633 616.05L485.896 707.798C484.299 713.717 487.823 719.774 493.77 721.357Z" fill="url(#paint9_linear_1_2)"/>
<path d="M566.287 814.192C578.194 814.578 579.309 791.741 568.669 787.625C554.518 782.146 547.759 787.225 542.17 767.045C535.906 744.401 470.093 801.487 445.521 797.742C424.35 794.521 424.777 876.592 445.521 873.151C456.685 871.306 478.807 870.921 480.032 871.595C513.482 889.903 541.853 886.834 548.034 886.132C556.844 885.154 564.415 865.91 553.829 864.74C566.218 864.836 571.394 842.343 559.088 840.98C571.091 840.925 578.222 815.514 566.287 814.192Z" fill="#F5BB51"/>
<path d="M505.374 106.419C400.508 106.419 349.988 191.725 356.293 301.395C357.6 323.42 363.726 355.233 371.311 382.475C387.045 439.12 470.038 496.165 505.388 496.165C540.711 496.165 623.704 439.12 639.451 382.489C647.023 355.233 653.162 323.434 654.456 301.409C660.761 191.725 610.268 106.419 505.374 106.419Z" fill="#FFC940"/>
<path d="M505.374 407.129C480.789 396.323 480.596 406.689 442.658 409.221C456.892 425.382 467.381 446.141 505.361 446.141C548.942 446.141 556.307 422.56 568.104 409.221C530.125 406.689 529.987 396.323 505.374 407.129Z" fill="#D47706"/>
<path d="M454.042 413.255C478.82 438.996 532.231 438.652 556.706 413.268C518.576 417.357 492.201 417.343 454.042 413.255Z" fill="white"/>
<path d="M616.821 264.903C594.039 251.343 553.155 249.678 536.994 258.928C533.566 260.787 534.489 270.588 537.448 269.363C560.519 259.768 595.663 259.286 617.316 270.381C620.207 271.854 620.276 266.871 616.821 264.903ZM393.928 264.903C416.71 251.343 457.58 249.678 473.768 258.928C477.21 260.787 476.288 270.588 473.314 269.363C450.229 259.768 415.127 259.272 393.446 270.381C390.541 271.854 390.486 266.871 393.928 264.903Z" fill="#BB7C0A"/>
<path d="M528.955 372.33C526.449 370.568 520.599 373.266 505.361 373.266C490.15 373.266 484.299 370.568 481.794 372.316C478.807 374.422 483.556 383.906 505.361 383.906C527.179 383.906 531.956 374.449 528.955 372.33Z" fill="#F0A429"/>
<path d="M482.042 306.048C482.936 312.972 478.228 321.19 465.179 327.343C456.892 331.267 439.657 335.878 416.999 326.339C406.854 322.071 396.956 308.76 397.865 301.395C410.13 278.269 470.534 274.896 482.042 306.048Z" fill="white"/>
<path d="M441.048 281.876C454.152 281.876 464.779 292.489 464.779 305.58C464.779 311.878 462.278 317.918 457.825 322.371C453.371 326.824 447.332 329.326 441.034 329.326C434.736 329.326 428.696 326.824 424.243 322.371C419.79 317.918 417.288 311.878 417.288 305.58C417.299 299.287 419.808 293.256 424.262 288.811C428.717 284.366 434.755 281.872 441.048 281.876Z" fill="url(#paint10_linear_1_2)"/>
<path d="M429.182 305.153C429.182 321.534 452.927 321.534 452.927 305.153C452.927 289.929 429.182 289.929 429.182 305.153Z" fill="#1A1626"/>
<path d="M425.575 298.504C425.575 305.387 435.528 305.387 435.528 298.504C435.528 292.131 425.575 292.131 425.575 298.504Z" fill="#AB968C"/>
<path d="M482.165 306.97C472.529 276.025 406.799 280.595 397.851 301.395C401.168 274.759 473.947 267.725 482.165 306.97Z" fill="#45332C"/>
<path d="M528.707 306.048C527.826 312.972 532.534 321.19 545.584 327.343C553.871 331.267 571.105 335.878 593.763 326.339C603.922 322.071 613.806 308.76 612.911 301.395C600.646 278.269 540.188 274.896 528.707 306.048Z" fill="white"/>
<path d="M569.178 281.876C582.297 281.876 592.924 292.489 592.924 305.58C592.924 318.657 582.297 329.284 569.178 329.284C566.063 329.286 562.979 328.675 560.1 327.484C557.222 326.294 554.606 324.548 552.403 322.347C550.199 320.146 548.45 317.532 547.257 314.656C546.063 311.779 545.448 308.695 545.446 305.58C545.446 292.489 556.073 281.876 569.178 281.876Z" fill="url(#paint11_linear_1_2)"/>
<path d="M557.326 305.153C557.326 321.534 581.071 321.534 581.071 305.153C581.071 289.929 557.326 289.929 557.326 305.153Z" fill="#1A1626"/>
<path d="M553.705 298.504C553.705 305.387 563.658 305.387 563.658 298.504C563.658 292.131 553.705 292.131 553.705 298.504Z" fill="#AB968C"/>
<path d="M528.611 306.97C538.247 276.039 603.909 280.458 612.911 301.395C609.58 274.759 536.815 267.725 528.611 306.97Z" fill="#45332C"/>
<path d="M623.415 121.74C635.391 104.671 533.938 68.6048 438.184 92.9699C342.513 114.844 288.579 219.504 288.579 351.612C288.579 400.618 320.103 461.421 378.4 492.49L399.709 483.459C333.978 420.055 349.947 355.604 375.303 279.646C447.146 238.101 527.936 225.794 584.361 176.087C577.134 197.74 615.898 227.57 635.473 279.646C661.449 348.845 676.398 418.747 610.86 483.28L630.917 491.912C687.232 460.705 722.183 400.411 722.183 351.612C722.183 195.441 661.752 110.686 623.415 121.726V121.74Z" fill="#FFB80D"/>
<path d="M623.415 121.781C634.923 108.016 583.659 85.0272 519.071 85.0272C598.334 91.2905 625.355 134.239 603.358 122.883C579.915 110.769 522.609 93.204 445.852 127.976C529.822 110.122 607.088 129.628 595.071 139.746C576.102 155.714 492.517 112.242 375.427 219.118C359.307 233.847 445.659 162.638 561.566 160.366C545.446 194.285 339.292 248.026 307.314 332.299C360.973 255.707 587.266 227.254 623.415 121.781ZM675.903 244.516C675.903 244.516 726.161 380.85 641.943 475.365C762.585 380.85 675.903 244.516 675.903 244.516Z" fill="#F9A307"/>
<path d="M379.804 275.984C379.804 275.984 359.252 279.728 342.458 297.954C307.314 422.092 391.505 475.09 391.505 475.09C391.505 475.09 324.687 407.019 379.804 275.984Z" fill="#F9A307"/>
<path d="M327.247 309.765C327.247 309.765 317.611 313.537 305.814 337.709C294.884 413.392 348.019 451.936 348.019 451.936C348.019 451.936 298.188 391.065 327.247 309.765ZM702.939 213.226C666.281 99.1782 623.415 121.795 623.415 121.795C623.415 121.795 602.78 160.408 586.371 173.967C556.706 210.404 658.655 241.652 656.012 399.489C682.978 287.341 608.052 212.359 606.841 192.33C605.464 169.631 624.323 134.735 639.039 130.536C654.993 125.994 691.541 182.35 702.939 213.24V213.226Z" fill="#F9A307"/>
<path d="M305.814 337.709C363.864 243.001 578.759 249.403 623.415 121.781C548.144 238.197 320.199 257.607 305.814 337.709Z" fill="#E68C00"/>
<path d="M621.35 172.742C621.35 172.742 668.951 274.828 676.784 361.551C689.724 228.203 621.35 172.742 621.35 172.742ZM365.061 259.727C365.061 259.727 434.33 214.768 521.04 177.67C428.218 183.231 365.061 259.713 365.061 259.713V259.727ZM322.305 250.531C322.305 250.531 376.721 163.588 475.971 138.3C337.874 129.256 322.305 250.531 322.305 250.531Z" fill="#FFCA25"/>
<path d="M654.016 866.309H809.484V889.917H654.016V866.309Z" fill="url(#paint12_linear_1_2)"/>
<path d="M654.016 862.936H809.484V866.309H654.016V862.936Z" fill="#5C300C"/>
<path d="M809.484 886.682H654.016C649.941 886.682 642.273 892.491 642.273 899.663V938.234H821.227V899.663C821.227 892.491 813.559 886.682 809.484 886.682Z" fill="url(#paint13_linear_1_2)"/>
<path d="M642.273 899.663H821.227V915.246H642.273V899.663Z" fill="url(#paint14_linear_1_2)"/>
<path d="M642.273 905.968H821.227V908.941H642.273V905.968Z" fill="#5C300C"/>
<defs>
<radialGradient id="paint0_radial_1_2" cx="0" cy="0" r="1" gradientUnits="userSpaceOnUse" gradientTransform="translate(505.98 517.802) scale(276.813 276.453)">
<stop stop-color="#BF6000"/>
<stop offset="0.397" stop-color="#DC8103"/>
<stop offset="0.772" stop-color="#F19A06"/>
<stop offset="1" stop-color="#F9A307"/>
</radialGradient>
<linearGradient id="paint1_linear_1_2" x1="505.388" y1="938.234" x2="505.388" y2="472.103" gradientUnits="userSpaceOnUse">
<stop offset="0.876" stop-color="#484258"/>
<stop offset="0.951" stop-color="#555064"/>
<stop offset="1" stop-color="#605B6E"/>
</linearGradient>
<linearGradient id="paint2_linear_1_2" x1="522.37" y1="822.895" x2="556.156" y2="831.948" gradientUnits="userSpaceOnUse">
<stop stop-color="#AB6730"/>
<stop offset="0.645" stop-color="#794419"/>
<stop offset="1" stop-color="#5C300C"/>
</linearGradient>
<linearGradient id="paint3_linear_1_2" x1="564.295" y1="733.466" x2="591.283" y2="632.739" gradientUnits="userSpaceOnUse">
<stop stop-color="#A36C00"/>
<stop offset="0.2" stop-color="#B17C14"/>
<stop offset="0.607" stop-color="#D4A446"/>
<stop offset="1" stop-color="#FACF7D"/>
</linearGradient>
<linearGradient id="paint4_linear_1_2" x1="627.774" y1="748.913" x2="654.035" y2="650.893" gradientUnits="userSpaceOnUse">
<stop offset="0.123" stop-color="#5C300C"/>
<stop offset="0.427" stop-color="#744117"/>
<stop offset="1" stop-color="#AB6730"/>
</linearGradient>
<linearGradient id="paint5_linear_1_2" x1="597.432" y1="746.47" x2="626.49" y2="637.939" gradientUnits="userSpaceOnUse">
<stop stop-color="#5C300C"/>
<stop offset="0.344" stop-color="#814A1D"/>
<stop offset="0.689" stop-color="#9F5F2B"/>
<stop offset="0.882" stop-color="#AB6730"/>
</linearGradient>
<linearGradient id="paint6_linear_1_2" x1="625.743" y1="756.512" x2="656.014" y2="643.311" gradientUnits="userSpaceOnUse">
<stop stop-color="#5C300C"/>
<stop offset="0.344" stop-color="#814A1D"/>
<stop offset="0.689" stop-color="#9F5F2B"/>
<stop offset="0.882" stop-color="#AB6730"/>
</linearGradient>
<linearGradient id="paint7_linear_1_2" x1="501.523" y1="715.301" x2="527.782" y2="617.294" gradientUnits="userSpaceOnUse">
<stop offset="0.123" stop-color="#5C300C"/>
<stop offset="0.427" stop-color="#744117"/>
<stop offset="1" stop-color="#AB6730"/>
</linearGradient>
<linearGradient id="paint8_linear_1_2" x1="529.057" y1="728.254" x2="558.115" y2="619.724" gradientUnits="userSpaceOnUse">
<stop stop-color="#5C300C"/>
<stop offset="0.344" stop-color="#814A1D"/>
<stop offset="0.689" stop-color="#9F5F2B"/>
<stop offset="0.882" stop-color="#AB6730"/>
</linearGradient>
<linearGradient id="paint9_linear_1_2" x1="499.491" y1="722.892" x2="529.808" y2="609.703" gradientUnits="userSpaceOnUse">
<stop stop-color="#5C300C"/>
<stop offset="0.344" stop-color="#814A1D"/>
<stop offset="0.689" stop-color="#9F5F2B"/>
<stop offset="0.882" stop-color="#AB6730"/>
</linearGradient>
<linearGradient id="paint10_linear_1_2" x1="440.997" y1="329.27" x2="440.997" y2="281.878" gradientUnits="userSpaceOnUse">
<stop stop-color="#A6694A"/>
<stop offset="1" stop-color="#4F2A1E"/>
</linearGradient>
<linearGradient id="paint11_linear_1_2" x1="569.206" y1="329.27" x2="569.206" y2="281.878" gradientUnits="userSpaceOnUse">
<stop stop-color="#A6694A"/>
<stop offset="1" stop-color="#4F2A1E"/>
</linearGradient>
<linearGradient id="paint12_linear_1_2" x1="731.75" y1="889.917" x2="731.75" y2="866.309" gradientUnits="userSpaceOnUse">
<stop stop-color="#A36C00"/>
<stop offset="0.2" stop-color="#B17C14"/>
<stop offset="0.607" stop-color="#D4A446"/>
<stop offset="1" stop-color="#FACF7D"/>
</linearGradient>
<linearGradient id="paint13_linear_1_2" x1="731.75" y1="938.234" x2="731.75" y2="886.682" gradientUnits="userSpaceOnUse">
<stop stop-color="#5C300C"/>
<stop offset="1" stop-color="#AB6730"/>
</linearGradient>
<linearGradient id="paint14_linear_1_2" x1="731.75" y1="915.232" x2="731.75" y2="899.663" gradientUnits="userSpaceOnUse">
<stop stop-color="#A36C00"/>
<stop offset="0.2" stop-color="#B17C14"/>
<stop offset="0.607" stop-color="#D4A446"/>
<stop offset="1" stop-color="#FACF7D"/>
</linearGradient>
</defs>
</svg>
